<?xml version="1.0" encoding="UTF-8" standalone="no"?>
<!-- Created with Inkscape (http://www.inkscape.org/) -->

<svg
   width="149.99963mm"
   height="149.99963mm"
   viewBox="0 0 149.99963 149.99963"
   version="1.1"
   id="svg463"
   xmlns="http://www.w3.org/2000/svg"
   xmlns:svg="http://www.w3.org/2000/svg">
  <defs
     id="defs460" />
  <g
     id="layer1"
     transform="translate(0,-4.0147418)">
    <path
       id="path519-1"
       style="fill:#f4d7d7;stroke-width:0.261321"
       d="M 75.000073,4.014742 C 33.578861,4.0147017 2.4500003e-4,37.593087 0,79.014299 -3.8999966e-5,120.43571 33.578661,154.01441 75.000073,154.01437 116.42128,154.01412 149.99967,120.43551 149.99963,79.014299 149.99939,37.593289 116.42108,4.0149872 75.000073,4.014742 Z m 0,17.499707 c 25.943087,-1.7e-5 46.974077,6.715789 46.973877,15.000118 0,0 -30.581781,15.015104 -46.973877,15.015104 -16.392097,0 -46.973877,-15.015104 -46.973877,-15.015104 -2.04e-4,-8.284329 21.030792,-15.000135 46.973877,-15.000118 z M 28.025679,121.51455 c 0,0 30.581778,-14.55208 46.973877,-14.55208 16.392093,0 46.973874,14.55208 46.973874,14.55208 1.9e-4,8.28433 -21.0308,15.00013 -46.973874,15.00011 -25.943075,2e-5 -46.974067,-6.71578 -46.973877,-15.00011 z" />
  </g>
</svg>
